<?xml version="1.0" encoding="iso-8859-1"?>
<!-- Generator: Adobe Illustrator 19.0.0, SVG Export Plug-In . SVG Version: 6.00 Build 0)  -->
<svg version="1.1" id="Capa_1" xmlns="http://www.w3.org/2000/svg" xmlns:xlink="http://www.w3.org/1999/xlink" x="0px" y="0px"
	 viewBox="0 0 512 512" style="enable-background:new 0 0 512 512;" xml:space="preserve">
<g>
	<g>
		<circle cx="53.397" cy="135.158" r="8.431"/>
	</g>
</g>
<g>
	<g>
		<path d="M469.844,171.69h-56.208c-23.298,0-60.595-8.782-81.446-19.178l-99.891-49.806c-23.169-11.551-63.081-20.95-88.97-20.95
			H53.397C23.955,81.756,0,105.711,0,135.154c0,14.613,5.913,28.412,16.351,38.457v220.098c0,4.657,3.775,8.431,8.431,8.431h8.943
			v19.673c0,4.657,3.775,8.431,8.431,8.431c4.656,0,8.431-3.774,8.431-8.431V402.14h427.178v19.673c0,4.656,3.775,8.431,8.431,8.431
			s8.431-3.775,8.431-8.431V402.14h8.942c4.656,0,8.431-3.774,8.431-8.431V213.844C512,190.6,493.089,171.69,469.844,171.69z
			 M495.138,385.279H33.213V169.842c0-2.515-1.123-4.899-3.062-6.501c-8.445-6.974-13.289-17.247-13.289-28.186
			c0-20.146,16.39-36.535,36.535-36.535s36.535,16.389,36.535,36.535v224.831c0,4.657,3.775,8.431,8.431,8.431h396.774V385.279z
			 M495.138,295.346H199.537c-4.656,0-8.431,3.774-8.431,8.431s3.775,8.431,8.431,8.431h295.601v39.345H106.795v-39.345h59.018
			c4.656,0,8.431-3.774,8.431-8.431s-3.775-8.431-8.431-8.431h-59.018v-14.052c0-13.946,11.346-25.293,25.293-25.293h337.756
			c13.947,0,25.293,11.347,25.293,25.293V295.346z M495.138,247.595c-7.051-5.305-15.81-8.455-25.293-8.455H132.088
			c-9.483,0-18.243,3.149-25.293,8.455v-112.44c0-14.12-5.508-26.976-14.489-36.535h51.024c23.298,0,60.595,8.782,81.446,19.178
			l99.891,49.806c23.169,11.551,63.081,20.95,88.97,20.95h56.208c13.947,0,25.293,11.347,25.293,25.293V247.595z"/>
	</g>
</g>
<g>
</g>
<g>
</g>
<g>
</g>
<g>
</g>
<g>
</g>
<g>
</g>
<g>
</g>
<g>
</g>
<g>
</g>
<g>
</g>
<g>
</g>
<g>
</g>
<g>
</g>
<g>
</g>
<g>
</g>
</svg>
