<?xml version="1.0" standalone="no"?>
<!DOCTYPE svg PUBLIC "-//W3C//DTD SVG 20010904//EN"
 "http://www.w3.org/TR/2001/REC-SVG-20010904/DTD/svg10.dtd">
<svg version="1.0" xmlns="http://www.w3.org/2000/svg"
 width="2134.000000pt" height="4360.000000pt" viewBox="0 0 2134.000000 4360.000000"
 preserveAspectRatio="xMidYMid meet">
<metadata>
Created by potrace 1.15, written by Peter Selinger 2001-2017
</metadata>
<g transform="translate(0.000000,4360.000000) scale(0.100000,-0.100000)"
fill="#000000" stroke="none">
<path d="M10060 43589 c-1402 -83 -2723 -422 -3978 -1018 -2139 -1018 -3896
-2742 -4963 -4871 -544 -1087 -889 -2228 -1043 -3450 -56 -440 -76 -790 -76
-1315 0 -772 57 -1365 200 -2088 551 -2777 2208 -5239 4585 -6812 1593 -1055
3382 -1646 5305 -1755 226 -13 924 -13 1150 0 1682 95 3276 565 4710 1388 845
485 1565 1036 2256 1726 844 844 1499 1757 2028 2826 609 1230 953 2483 1072
3905 21 255 30 1078 15 1360 -78 1424 -411 2747 -1014 4020 -1234 2607 -3514
4631 -6247 5545 -933 313 -1810 481 -2815 540 -197 11 -986 11 -1185 -1z
m2758 -4846 l692 -6 0 -1054 0 -1053 -727 0 c-799 0 -806 -1 -927 -60 -86 -42
-168 -126 -211 -215 -64 -131 -65 -147 -65 -920 l0 -695 978 -2 977 -3 -112
-1085 c-61 -597 -112 -1086 -112 -1087 -1 -2 -390 -3 -866 -3 l-865 0 0 -3090
0 -3090 -1280 0 -1280 0 0 3090 0 3090 -615 0 -615 0 0 1090 0 1090 614 0 615
0 4 873 c3 961 2 940 72 1251 66 295 184 589 328 823 397 639 1073 1004 1957
1056 112 7 767 7 1438 0z"/>
</g>
</svg>
